<svg xmlns="http://www.w3.org/2000/svg" viewBox="0 0 184.55 74.84"><defs><style>.cls-1{fill:#057aa8;}.cls-2{fill:#434343;}.cls-3{fill:#fff;}.cls-4{fill:#7a7a7a;}.cls-5{fill:#d5d4d4;}</style></defs><g id="Layer_2" data-name="Layer 2"><g id="Layer_1-2" data-name="Layer 1"><path class="cls-1" d="M122.52,74.84a37.42,37.42,0,1,1,37.42-37.42A37.42,37.42,0,0,1,122.52,74.84Z"/><rect class="cls-2" x="92.13" y="13.09" width="24.14" height="52.39"/><path class="cls-2" d="M123.78,61.72a25.08,25.08,0,0,0,11.36-3.49,24.32,24.32,0,0,0-2.06-42.72,24.39,24.39,0,0,0-22.14.53,24.33,24.33,0,0,0,2.13,43.81,25.68,25.68,0,0,0,10.72,1.88Zm-1.25-14.93a10.1,10.1,0,0,1-5.23-1.6,9.36,9.36,0,1,1,13-2.53,9.23,9.23,0,0,1-2.53,2.53A10,10,0,0,1,122.53,46.79Z"/><rect class="cls-2" x="137.73" y="5.61" width="16.65" height="52.39"/><path class="cls-2" d="M16.66,57.61a21.33,21.33,0,0,0,14.42-2.46A21,21,0,0,0,40.83,33.6a20.49,20.49,0,0,0-3.72-8.47,21.13,21.13,0,0,0-5.85-5.3,22.44,22.44,0,0,0-10.67-3,24.54,24.54,0,0,0-8.66,1.91C4.7,22,.11,29.61,0,37.41V61.74H16.66Zm3.92-10.78a10.16,10.16,0,0,1-4.46-1.13,9.35,9.35,0,0,1-4.85-9.19,9.53,9.53,0,0,1,9.25-8.44,9.1,9.1,0,0,1,3.6.71,9.74,9.74,0,0,1,2.79,1.82A9.21,9.21,0,0,1,28.8,33a9.42,9.42,0,0,1-3,12.22,9.94,9.94,0,0,1-5.23,1.59Z"/><path class="cls-2" d="M165,58a21.4,21.4,0,0,0,9.62-3,20.58,20.58,0,0,0-1.75-36.15,20.67,20.67,0,0,0-18.75.45A20.6,20.6,0,0,0,156,56.4,21.7,21.7,0,0,0,165,58ZM164,46.79a10.11,10.11,0,0,1-5.24-1.6,9.36,9.36,0,1,1,10.47,0,10,10,0,0,1-5.24,1.6Z"/><path class="cls-2" d="M81.76,58a21.4,21.4,0,0,0,9.62-3,20.57,20.57,0,0,0-1.76-36.15,20.65,20.65,0,0,0-18.74.45,20.58,20.58,0,0,0,1.8,37.06A21.66,21.66,0,0,0,81.75,58Zm-1.07-11.2a10.1,10.1,0,0,1-5.23-1.6,9.23,9.23,0,0,1-2.53-2.53,9.36,9.36,0,1,1,13,2.53A10,10,0,0,1,80.69,46.79Z"/><path class="cls-2" d="M51.67,58a21.4,21.4,0,0,0,9.62-3,20.57,20.57,0,0,0-1.76-36.15,20.65,20.65,0,0,0-18.74.45,20.58,20.58,0,0,0,1.8,37.06A21.66,21.66,0,0,0,51.66,58ZM50.6,46.79a10.1,10.1,0,0,1-5.23-1.6,9.23,9.23,0,0,1-2.53-2.53,9.36,9.36,0,1,1,13,2.53,10,10,0,0,1-5.24,1.6Z"/><rect class="cls-3" x="95.88" y="16.83" width="16.65" height="44.91"/><path class="cls-3" d="M123.59,58a21.4,21.4,0,0,0,9.62-3,20.58,20.58,0,0,0-1.75-36.15,20.65,20.65,0,0,0-18.74.45,20.59,20.59,0,0,0,1.8,37.06,21.66,21.66,0,0,0,9.07,1.6Zm-1.06-11.2a10.1,10.1,0,0,1-5.23-1.6,9.23,9.23,0,0,1-2.53-2.53,9.36,9.36,0,1,1,13,2.53,10,10,0,0,1-5.23,1.6Z"/><rect class="cls-3" x="143.34" y="11.22" width="5.43" height="41.16"/><path class="cls-3" d="M11,49a14.07,14.07,0,0,0,5.3,2.82,15.23,15.23,0,0,0,5.93.49,15.4,15.4,0,0,0,6.64-2.41,15.25,15.25,0,0,0,6.3-15.7A14.9,14.9,0,0,0,33,29.06a15.11,15.11,0,0,0-4.67-4.44,16,16,0,0,0-7.76-2.17,16.88,16.88,0,0,0-6.31,1.39A15.18,15.18,0,0,0,5.61,37.41V56.13H11Zm9.54-2.18a12.12,12.12,0,0,1-3.38-.65,9.3,9.3,0,0,1-5.07-4.66A9.36,9.36,0,0,1,24.22,28.81,9.49,9.49,0,0,1,29,41.48,9.3,9.3,0,0,1,24,46.14a12.11,12.11,0,0,1-3.37.64Z"/><path class="cls-3" d="M81.44,52.38a15.57,15.57,0,0,0,7-2.15,15,15,0,0,0-1.27-26.29,15.67,15.67,0,0,0-6.49-1.48,15.47,15.47,0,0,0-7.14,1.81,15,15,0,0,0,1.32,27,15.83,15.83,0,0,0,6.59,1.16Zm-.77-5.59a10.14,10.14,0,0,1-5.24-1.6,9.33,9.33,0,0,1-2.52-2.53,9.24,9.24,0,0,1-1.18-2.45,9.36,9.36,0,1,1,17.87,0,9.31,9.31,0,0,1-3.7,5,10,10,0,0,1-5.24,1.6Z"/><path class="cls-4" d="M123.29,52.38a15.57,15.57,0,0,0,7-2.15A15,15,0,0,0,129,23.94a15,15,0,0,0-13.62.33,15,15,0,0,0,1.32,27,15.8,15.8,0,0,0,6.59,1.16Zm-.78-5.59a10.1,10.1,0,0,1-5.23-1.6,9.33,9.33,0,0,1-2.52-2.53,9.24,9.24,0,0,1-1.18-2.45,9.36,9.36,0,1,1,17.87,0,9.24,9.24,0,0,1-1.18,2.45,9.33,9.33,0,0,1-2.52,2.53A10,10,0,0,1,122.51,46.79Z"/><rect class="cls-4" x="101.75" y="22.45" width="5.43" height="29.94"/><circle class="cls-5" cx="122.52" cy="37.43" r="9.36"/><circle class="cls-1" cx="163.95" cy="37.43" r="9.36" transform="translate(80.62 183.5) rotate(-73.15)"/><path class="cls-3" d="M172.86,34.71H155a10.23,10.23,0,0,1,2.4-4,9.37,9.37,0,0,1,12.65-.31,10.18,10.18,0,0,1,2.8,4.29ZM165.38,52.3a15.34,15.34,0,0,0,11-6.57A16.7,16.7,0,0,0,178.15,42h-6a9.09,9.09,0,0,1-4.84,4.15,14.34,14.34,0,0,1-3.38.65,13.94,13.94,0,0,1-3.38-.65,9.13,9.13,0,0,1-5.58-6h15.59v0h8.06a14.93,14.93,0,0,0-7.55-15.86,17.48,17.48,0,0,0-7.14-1.8,20.21,20.21,0,0,0-4.56.75,14.12,14.12,0,0,0-6.37,4A15.17,15.17,0,0,0,151.61,46a14.92,14.92,0,0,0,13.77,6.35Z"/><path class="cls-1" d="M80.67,46.79A9.37,9.37,0,1,1,87.29,44,9.36,9.36,0,0,1,80.67,46.79Z"/><circle class="cls-1" cx="50.58" cy="37.43" r="9.36"/><path class="cls-3" d="M59.49,34.71H41.63a10.37,10.37,0,0,1,2.41-4,9.37,9.37,0,0,1,12.65-.31,10.06,10.06,0,0,1,2.79,4.29ZM52,52.3a15.34,15.34,0,0,0,11-6.57A16.7,16.7,0,0,0,64.78,42h-6a9.07,9.07,0,0,1-4.83,4.15,14.43,14.43,0,0,1-3.38.65,13.94,13.94,0,0,1-3.38-.65,9.14,9.14,0,0,1-5.59-6h15.6v0h8A14.91,14.91,0,0,0,57.7,24.26a17.48,17.48,0,0,0-7.14-1.8,20.11,20.11,0,0,0-4.56.75,14.21,14.21,0,0,0-6.38,4A14.93,14.93,0,0,0,42,49.72,14.86,14.86,0,0,0,52,52.3Z"/><circle class="cls-1" cx="20.58" cy="37.43" r="9.36"/></g></g></svg>