<?xml version="1.0" encoding="utf-8"?>
<!-- Generator: Adobe Illustrator 25.0.1, SVG Export Plug-In . SVG Version: 6.00 Build 0)  -->
<svg version="1.0" id="katman_1" xmlns="http://www.w3.org/2000/svg" xmlns:xlink="http://www.w3.org/1999/xlink" x="0px" y="0px"
	 viewBox="0 0 235 168" style="enable-background:new 0 0 235 168;" xml:space="preserve">
<style type="text/css">
	.st0{clip-path:url(#SVGID_2_);}
	.st1{fill:none;stroke:#979797;}
	.st2{fill-rule:evenodd;clip-rule:evenodd;}
	.st3{fill-rule:evenodd;clip-rule:evenodd;fill:#D42D27;}
	.st4{fill-rule:evenodd;clip-rule:evenodd;fill:#FFFFFF;}
</style>
<g>
	<defs>
		<rect id="SVGID_1_" x="20" y="62" width="195" height="44"/>
	</defs>
	<clipPath id="SVGID_2_">
		<use xlink:href="#SVGID_1_"  style="overflow:visible;"/>
	</clipPath>
	<g class="st0">
		<path class="st1" d="M-297.5-183.5h1168v649h-1168V-183.5z"/>
		<path class="st2" d="M212.3,101.6c-0.3,0-0.7-0.1-0.9-0.3c-0.3-0.2-0.5-0.4-0.6-0.8c-0.1-0.3-0.2-0.6-0.1-1
			c0.1-0.3,0.2-0.6,0.5-0.9c0.2-0.2,0.5-0.4,0.9-0.5c0.3-0.1,0.7,0,1,0.1c0.3,0.1,0.6,0.3,0.8,0.6c0.2,0.3,0.3,0.6,0.3,0.9
			C214,100.8,213.2,101.6,212.3,101.6z M212.3,97.9c-1.1,0-2,0.9-2,2c0,1.1,0.9,2,2,2c0.3,0,0.5,0,0.8-0.1c0.2-0.1,0.5-0.2,0.7-0.4
			c0.2-0.2,0.3-0.4,0.4-0.6c0.1-0.2,0.2-0.5,0.2-0.8c0-0.3-0.1-0.5-0.2-0.8c-0.1-0.2-0.2-0.5-0.4-0.6c-0.2-0.2-0.4-0.3-0.7-0.4
			S212.6,97.9,212.3,97.9L212.3,97.9z M211.9,99.7v-0.6h0.4c0.2,0,0.4,0.1,0.4,0.3c0,0.3-0.3,0.3-0.5,0.3H211.9L211.9,99.7z
			 M213.1,99.4c0-0.5-0.4-0.7-0.8-0.7h-0.8v2.3h0.4V100h0.3l0.5,0.9h0.5l-0.6-1C212.9,99.9,213.1,99.7,213.1,99.4L213.1,99.4z
			 M164,79.5h-4.7v4.9h-2.9v3.9h2.9v7.7c0,2.7,0.7,6.3,5.8,6.3c1,0,2.3-0.2,3-0.5L168,98c-0.5,0.2-1.2,0.4-2.1,0.4
			c-1.4,0-1.9-1-1.9-2.4v-7.7h4.2v-3.9H164V79.5L164,79.5z M200.9,92.6l6.3-8.2h-5.6l-3.6,5l-3.5-5h-5.8l6.3,8.2l-7.1,9.3h5.7
			l4.3-5.9l4.2,5.9h5.9L200.9,92.6L200.9,92.6z M145.4,98.2c-3.1,0-4.6-2.7-4.6-5.2c0-2.5,1.4-5.1,4.6-5.1c3.1,0,4.6,2.6,4.6,5.1
			C149.9,95.5,148.5,98.2,145.4,98.2L145.4,98.2z M145.4,83.9c-5.5,0-9.5,3.8-9.5,9.2c0,5.5,4.1,9.3,9.5,9.3c5.4,0,9.5-3.9,9.5-9.3
			C154.8,87.7,150.8,83.9,145.4,83.9z M182.1,94.4c0,2.6-1.5,4.2-4.1,4.2c-1,0-2.7-0.3-2.7-1.9c0-1.7,2.1-2.7,6.2-2.7h0.6V94.4z
			 M178.9,83.9c-2.8,0-5.6,1.1-7.5,2.9l2.5,2.8c1.1-1.1,3.1-1.9,4.6-1.9c1.7,0,3.5,0.9,3.5,2.9v0.3c-5.1,0-11.5,0.6-11.5,5.8
			c0,3.8,3.3,5.5,6.6,5.5c2.1,0,3.8-1.2,4.9-2.4h0.1v2h4.5V91.3C186.7,88.5,185.7,83.9,178.9,83.9z M106.1,87.1L106.1,87.1l-0.1-2.7
			h-4.6v17.5h4.8v-9.3c0,0,0.2-4.3,4.4-4.3c0.3,0,0.9,0.1,1.5,0.2V84c-0.3-0.1-1.1-0.1-1.4-0.1C108.8,83.9,107.2,85.4,106.1,87.1
			L106.1,87.1z M73.2,79.5h-4.7v4.9h-2.9v3.9h2.9v7.7c0,2.7,0.7,6.3,5.8,6.3c1,0,2.3-0.2,3-0.5L77.2,98c-0.5,0.2-1.2,0.4-2.1,0.4
			c-1.4,0-1.9-1-1.9-2.4v-7.7h4.2v-3.9h-4.2L73.2,79.5L73.2,79.5z M92.5,93.9c0,2.1-1.3,4.3-3.8,4.3c-1.9,0-2.9-1.4-2.9-4.2v-9.6
			h-4.8v10.8c0,3.6,1.8,7.1,6.6,7.1c2.3,0,4.2-1.8,5.1-3.1h0.1v2.6h4.6V84.4h-4.8V93.9z M124.1,98.2c-2.9,0-4.6-2.6-4.6-5.1
			c0-2.5,1.8-5.2,4.6-5.2c3.1,0,4.7,2.6,4.7,5.1C128.8,95.6,127.1,98.2,124.1,98.2L124.1,98.2z M125.1,83.9c-2.2,0-3.8,1-5.4,2.4
			h-0.1V74.7h-4.8v27.1h4.6v-2.5h0.1c1.1,1.8,3.2,3,5.5,3c5,0,8.7-3.9,8.7-9.3C133.7,87.7,130,83.9,125.1,83.9L125.1,83.9z"/>
		<path class="st3" d="M20,84.9c0-11.2,9.1-20.3,20.3-20.3s20.3,9.1,20.3,20.3s-9.1,20.3-20.3,20.3S20,96.1,20,84.9z"/>
		<path class="st4" d="M35.8,92.4c-2.3-1.7-4.6-3.5-6.7-5.4c-0.8,1.7-1.5,3.5-2.1,5.3c3.4,2.9,8,6.2,11.1,8.1
			C42.1,89.8,48.5,83,54.5,78.2c-0.8-1.6-1.8-3.1-3.1-4.4C44.9,78.7,39.6,85.1,35.8,92.4"/>
		<path class="st2" d="M82.2,67.8h2.5v6.9h2.2v-6.9h2.5v-2h-7.2V67.8L82.2,67.8z M96.9,70.7c0,1.2-0.7,2.4-2.1,2.4
			c-1.4,0-1.7-1.3-1.7-2.4v-4.9H91v5.6c0,1.8,1,3.6,3.3,3.6c1.3,0,2.4-0.8,2.8-1.7h0v1.4h2.1v-8.9h-2.2V70.7z M101.4,74.7h2.2v-8.9
			h-2.2V74.7z M85.8,64.7c0.4,0,0.7-0.1,0.9-0.4c0.3-0.3,0.4-0.6,0.4-0.9c0-0.4-0.1-0.7-0.4-0.9S86.2,62,85.8,62
			c-0.2,0-0.4,0-0.5,0.1c-0.2,0.1-0.3,0.2-0.4,0.3c-0.1,0.1-0.2,0.3-0.3,0.4s-0.1,0.3-0.1,0.5C84.5,64.1,85.1,64.7,85.8,64.7z
			 M108.8,64.7c0.2,0,0.4,0,0.5-0.1c0.2-0.1,0.3-0.2,0.4-0.3c0.1-0.1,0.2-0.3,0.3-0.4c0.1-0.2,0.1-0.3,0.1-0.5
			c0-0.3-0.1-0.5-0.2-0.7c-0.1-0.2-0.4-0.4-0.6-0.5c-0.2-0.1-0.5-0.1-0.8-0.1c-0.3,0.1-0.5,0.2-0.7,0.4s-0.3,0.4-0.4,0.7
			c-0.1,0.3,0,0.5,0.1,0.8c0.1,0.2,0.3,0.5,0.5,0.6C108.2,64.6,108.5,64.7,108.8,64.7L108.8,64.7z M105.2,65.8v2h2.5v6.9h2.2v-6.9
			h2.5v-2H105.2L105.2,65.8z M68.4,74.7h2.2v-8.9h-2.2V74.7L68.4,74.7z M77.8,65.6c-1.3,0-2.4,0.8-2.8,1.7h0v-1.4h-2.1v8.9h2.2v-4.9
			c0-1.2,0.7-2.4,2.1-2.4c1.4,0,1.7,1.3,1.7,2.4v4.9h2.2v-5.6C81.1,67.4,80.1,65.6,77.8,65.6L77.8,65.6z"/>
	</g>
</g>
</svg>
