<svg width="2280" height="292" viewBox="0 0 2280 292" fill="none" xmlns="http://www.w3.org/2000/svg">
<path fill-rule="evenodd" clip-rule="evenodd" d="M1594.75 4.2282H1641.58V244.169H1844.62L1814.81 291.042H1594.75V4.2282ZM1227 291.042L1053.78 17.7168C1043.13 -0.0258758 1014.74 -0.0258712 1002.67 18.4301L830.869 291.042H887.664L939.491 208.684H1050.24L1079.36 161.824H968.608L1028.96 67.4169L1170.24 291.042H1227ZM1332.41 4.31893C1253.27 4.31893 1201.17 68.4804 1201.17 147.635C1201.17 226.776 1253.28 290.964 1332.41 290.964L1524.86 290.73L1554.97 244.273H1333.82C1280.48 244.273 1249.26 201.005 1249.26 147.635C1249.26 94.2643 1280.47 50.9971 1333.82 50.9971H1530.82L1559.9 4.17635L1332.41 4.31893ZM131.254 50.9971H334.283C387.653 50.9971 418.859 94.2643 418.859 147.635C418.859 201.005 387.666 244.273 334.283 244.273H131.254C77.8835 244.273 46.6912 201.005 46.6912 147.635C46.6912 94.2643 77.8835 50.9971 131.254 50.9971ZM131.254 4.31893C52.0996 4.31893 0 68.4804 0 147.635C0 226.776 52.0996 290.964 131.254 290.964H334.283C413.437 290.964 465.537 226.776 465.537 147.635C465.537 68.4804 413.437 4.31893 334.283 4.31893H131.254ZM1894.68 170.358C1902.3 212.769 1931.48 244.273 1977.03 244.273H2198.18L2168.04 290.73L1975.62 290.964C1896.45 290.964 1844.38 226.776 1844.38 147.635C1844.38 68.4804 1896.46 4.31893 1975.62 4.31893L2203.1 4.18931L2174.04 51.0102H1977.05C1932.13 51.0102 1902.82 81.9819 1894.69 123.511H2172.63L2142.81 170.371L1894.68 170.358ZM730.418 174.508C752.729 174.119 773.995 164.982 789.636 149.066C805.276 133.15 814.04 111.728 814.04 89.4136C814.04 67.099 805.276 45.677 789.636 29.761C773.995 13.8451 752.729 4.70849 730.418 4.31893L491.528 4.21523V291.029H544.069V51.0102H730.418C740.603 51.0102 750.372 55.0562 757.574 62.2583C764.776 69.4603 768.822 79.2284 768.822 89.4136C768.822 99.5989 764.776 109.367 757.574 116.569C750.372 123.771 740.603 127.817 730.418 127.817H580.981L749.562 290.704H817.381L696.697 174.612L730.418 174.508ZM2252.17 4.48755C2264.35 4.48755 2273.99 14.1112 2273.99 26.8734C2273.99 39.8432 2264.37 49.3889 2252.17 49.3889C2239.84 49.3889 2230.24 39.8432 2230.24 26.8734C2230.24 14.1112 2239.84 4.48755 2252.17 4.48755V0C2237.35 0 2224.82 11.4004 2224.82 26.8604C2224.82 42.476 2237.36 53.8764 2252.17 53.8764C2266.87 53.8764 2279.41 42.476 2279.41 26.8604C2279.41 11.4004 2266.87 0 2252.17 0V4.48755Z" fill="white"/>
</svg>
