<svg width="2311" height="417" viewBox="0 0 2311 417" fill="none" xmlns="http://www.w3.org/2000/svg">
<path fill-rule="evenodd" clip-rule="evenodd" d="M1594.75 61.0519H1641.58V300.993H1844.62L1814.81 347.865H1594.75V61.0519ZM1227 347.865L1053.78 74.5404C1043.13 56.7978 1014.74 56.7978 1002.67 75.2538L830.869 347.865H887.664L939.491 265.507H1050.24L1079.36 218.647H968.608L1028.96 124.241L1170.24 347.865H1227ZM1332.41 61.1426C1253.27 61.1426 1201.17 125.304 1201.17 204.459C1201.17 283.6 1253.28 347.787 1332.41 347.787L1524.86 347.554L1554.97 301.096H1333.82C1280.48 301.096 1249.26 257.829 1249.26 204.459C1249.26 151.088 1280.47 107.821 1333.82 107.821H1530.82L1559.9 61L1332.41 61.1426ZM131.254 107.821H334.283C387.653 107.821 418.859 151.088 418.859 204.459C418.859 257.829 387.666 301.096 334.283 301.096H131.254C77.8834 301.096 46.6912 257.829 46.6912 204.459C46.6912 151.088 77.8834 107.821 131.254 107.821ZM131.254 61.1426C52.0996 61.1426 0 125.304 0 204.459C0 283.6 52.0996 347.787 131.254 347.787H334.283C413.437 347.787 465.537 283.6 465.537 204.459C465.537 125.304 413.437 61.1426 334.283 61.1426H131.254ZM1894.68 227.182C1902.3 269.593 1931.48 301.096 1977.03 301.096H2198.18L2168.04 347.554L1975.62 347.787C1896.45 347.787 1844.38 283.6 1844.38 204.459C1844.38 125.304 1896.46 61.1426 1975.62 61.1426L2203.1 61.013L2174.04 107.834H1977.05C1932.13 107.834 1902.82 138.806 1894.69 180.335H2172.63L2142.81 227.195L1894.68 227.182ZM730.418 231.332C752.729 230.942 773.995 221.806 789.636 205.89C805.276 189.974 814.04 168.552 814.04 146.237C814.04 123.923 805.276 102.501 789.636 86.5847C773.995 70.6687 752.729 61.5321 730.418 61.1426L491.528 61.0389V347.852H544.069V107.834H730.418C740.604 107.834 750.372 111.88 757.574 119.082C764.776 126.284 768.822 136.052 768.822 146.237C768.822 156.423 764.776 166.191 757.574 173.393C750.372 180.595 740.604 184.641 730.418 184.641H580.981L749.562 347.528H817.381L696.697 231.436L730.418 231.332Z" fill="white"/>
</svg>
