<svg width="2311" height="417" viewBox="0 0 2311 417" fill="none" xmlns="http://www.w3.org/2000/svg">
<path fill-rule="evenodd" clip-rule="evenodd" d="M1594.75 50.0519H1641.58V289.993H1844.62L1814.81 336.865H1594.75V50.0519ZM1227 336.865L1053.78 63.5404C1043.13 45.7978 1014.74 45.7978 1002.67 64.2538L830.869 336.865H887.664L939.491 254.507H1050.24L1079.36 207.647H968.608L1028.96 113.241L1170.24 336.865H1227ZM1332.41 50.1426C1253.27 50.1426 1201.17 114.304 1201.17 193.459C1201.17 272.6 1253.28 336.787 1332.41 336.787L1524.86 336.554L1554.97 290.096H1333.82C1280.48 290.096 1249.26 246.829 1249.26 193.459C1249.26 140.088 1280.47 96.8208 1333.82 96.8208H1530.82L1559.9 50L1332.41 50.1426ZM131.254 96.8208H334.283C387.653 96.8208 418.859 140.088 418.859 193.459C418.859 246.829 387.666 290.096 334.283 290.096H131.254C77.8834 290.096 46.6912 246.829 46.6912 193.459C46.6912 140.088 77.8834 96.8208 131.254 96.8208ZM131.254 50.1426C52.0996 50.1426 0 114.304 0 193.459C0 272.6 52.0996 336.787 131.254 336.787H334.283C413.437 336.787 465.537 272.6 465.537 193.459C465.537 114.304 413.437 50.1426 334.283 50.1426H131.254ZM1894.68 216.182C1902.3 258.593 1931.48 290.096 1977.03 290.096H2198.18L2168.04 336.554L1975.62 336.787C1896.45 336.787 1844.38 272.6 1844.38 193.459C1844.38 114.304 1896.46 50.1426 1975.62 50.1426L2203.1 50.013L2174.04 96.8338H1977.05C1932.13 96.8338 1902.82 127.806 1894.69 169.335H2172.63L2142.81 216.195L1894.68 216.182ZM730.418 220.332C752.729 219.942 773.995 210.806 789.636 194.89C805.276 178.974 814.04 157.552 814.04 135.237C814.04 112.923 805.276 91.5006 789.636 75.5847C773.995 59.6687 752.729 50.5321 730.418 50.1426L491.528 50.0389V336.852H544.069V96.8338H730.418C740.604 96.8338 750.372 100.88 757.574 108.082C764.776 115.284 768.822 125.052 768.822 135.237C768.822 145.423 764.776 155.191 757.574 162.393C750.372 169.595 740.604 173.641 730.418 173.641H580.981L749.562 336.528H817.381L696.697 220.436L730.418 220.332Z" fill="#D83828"/>
</svg>
