<svg xmlns="http://www.w3.org/2000/svg" viewBox="0 0 324.47 131.59"><defs><style>.cls-1{fill:#fff;}</style></defs><g id="Layer_2" data-name="Layer 2"><g id="Layer_1-2" data-name="Layer 1"><path class="cls-1" d="M148.23,50.66a16.45,16.45,0,0,0-22.11,20A16.16,16.16,0,0,0,128.19,75a16.45,16.45,0,0,0,4.44,4.44,17.66,17.66,0,0,0,9.2,2.81A17.38,17.38,0,0,0,151,79.45,16.42,16.42,0,0,0,155.48,75a16.23,16.23,0,0,0,2.06-4.3A16.62,16.62,0,0,0,148.23,50.66Z"/><path class="cls-1" d="M99.67,53.48A16.46,16.46,0,0,0,77.44,54a18,18,0,0,0-4.24,7h31.38A17.7,17.7,0,0,0,99.67,53.48Z"/><path class="cls-1" d="M322.32,53.37A36.34,36.34,0,0,0,304,33.19a36.35,36.35,0,0,0-31.42,0c-.37-.65-.76-1.3-1.15-1.94V9.86H250.06A65.8,65.8,0,0,0,165.42,23H162v4.36a67.43,67.43,0,0,0-3.89,6.08l-.52-.27a38,38,0,0,0-15.7-3.56A37.6,37.6,0,0,0,124.62,34a36.44,36.44,0,0,0-9.17,7.15,36.35,36.35,0,0,0-10.78-8,36.37,36.37,0,0,0-33,.8,36.42,36.42,0,0,0-9.1,7.08A37.23,37.23,0,0,0,55,34.86c-5.67-3.49-12.2-4.86-18.77-5.23A43.47,43.47,0,0,0,21,33C8.26,38.64.19,52.06,0,65.78v42.77H29.29v-7.27A37.4,37.4,0,0,0,54.65,97a34.53,34.53,0,0,0,7.9-6.41,36.2,36.2,0,0,0,12.33,8.6,38,38,0,0,0,16,2.81h0a37.7,37.7,0,0,0,16.91-5.19,35.34,35.34,0,0,0,7.65-6.27,36.32,36.32,0,0,0,12.38,8.66,38.06,38.06,0,0,0,16,2.81h0a38.44,38.44,0,0,0,14.37-3.8,65.64,65.64,0,0,0,3.88,6.06v10.92h9.89A65.81,65.81,0,0,0,270.38,102h1.05v-1.64q.58-.94,1.14-1.92c.53.26,1.07.51,1.63.75a38.17,38.17,0,0,0,15.95,2.8h0a37.7,37.7,0,0,0,16.91-5.19A36.54,36.54,0,0,0,322.32,53.37ZM50.82,87.68a27,27,0,0,1-11.66,4.24,26.45,26.45,0,0,1-10.43-.87,25.08,25.08,0,0,1-9.33-4.94V98.68H9.87V65.77A26.68,26.68,0,0,1,25.09,41.91a29.79,29.79,0,0,1,11.09-2.43,28.34,28.34,0,0,1,13.65,3.8A26.53,26.53,0,0,1,58,51.1a26,26,0,0,1,3.86,9A26.79,26.79,0,0,1,50.82,87.68Zm63.89-17.14H100.55v0H73.13A16,16,0,0,0,83,81.12a24.48,24.48,0,0,0,5.94,1.14,25.14,25.14,0,0,0,6-1.14,15.91,15.91,0,0,0,8.49-7.29h10.56a29.89,29.89,0,0,1-3.14,6.58C106.28,87.19,99.3,90.78,91.43,92h0a26.18,26.18,0,0,1-17.57-4.54,26.24,26.24,0,0,1-4.18-39.57,25,25,0,0,1,11.2-7.05,35.73,35.73,0,0,1,8-1.31,30.77,30.77,0,0,1,12.56,3.17A26.24,26.24,0,0,1,114.71,70.54Zm40.76,17.78a27.34,27.34,0,0,1-12.29,3.77l0,0a27.7,27.7,0,0,1-11.6-2,26.33,26.33,0,0,1-2.32-47.4,26.35,26.35,0,0,1,24-.58,26.32,26.32,0,0,1,2.23,46.23Zm78.73,8.44A37.66,37.66,0,0,1,217.3,102h0a38,38,0,0,1-16-2.81,36.53,36.53,0,0,1-3.5-1.71v11.11H168.57V29.6h29.28v4.58l.34-.19a37.59,37.59,0,0,1,17.25-4.36,38,38,0,0,1,15.69,3.56,36.19,36.19,0,0,1,3.07,63.57Zm27.36-4.66H252V19.73h9.54Zm52.49-21.56H304a16,16,0,0,1-1.38,3.29h10.56a29.45,29.45,0,0,1-3.14,6.58c-4.47,6.78-11.45,10.37-19.32,11.55h0a26.28,26.28,0,0,1-24.2-11.16A26.72,26.72,0,0,1,269,47.85a25.05,25.05,0,0,1,11.2-7.05,35.81,35.81,0,0,1,8-1.31,30.76,30.76,0,0,1,12.55,3.17A26.25,26.25,0,0,1,314.05,70.54Z"/><path class="cls-1" d="M42.58,50.65A16.47,16.47,0,0,0,21.32,72.93a16.36,16.36,0,0,0,8.91,8.19,21.12,21.12,0,0,0,5.95,1.14h0a21.55,21.55,0,0,0,5.94-1.14A16.36,16.36,0,0,0,51,72.93,16.7,16.7,0,0,0,42.58,50.65Z"/><path class="cls-1" d="M299,53.48a16.46,16.46,0,0,0-22.23.55,18,18,0,0,0-4.24,7h31.38A17.7,17.7,0,0,0,299,53.48Z"/><path class="cls-1" d="M299.88,70.57H272.46a16.07,16.07,0,0,0,9.82,10.55,24.48,24.48,0,0,0,5.94,1.14,25.14,25.14,0,0,0,5.95-1.14,14.91,14.91,0,0,0,2.22-1A16.43,16.43,0,0,0,304,70.54h-4.12Z"/><path class="cls-1" d="M226.82,42.09a26.35,26.35,0,0,0-24,.58,26.32,26.32,0,0,0,2.32,47.4,27.68,27.68,0,0,0,11.59,2v0a27.38,27.38,0,0,0,12.29-3.77,26.32,26.32,0,0,0-2.23-46.23Zm4.3,28.61a16.42,16.42,0,0,1-6.52,8.75,17.38,17.38,0,0,1-9.19,2.81,17.66,17.66,0,0,1-9.2-2.81A16.63,16.63,0,0,1,201.76,75a16.44,16.44,0,0,1-2.06-4.31,16.45,16.45,0,1,1,31.42,0Z"/><rect class="cls-1" x="178.9" y="39.47" width="9.54" height="52.64"/></g></g></svg>